<?xml version="1.0" standalone="no"?>
<!DOCTYPE svg PUBLIC "-//W3C//DTD SVG 20010904//EN"
 "http://www.w3.org/TR/2001/REC-SVG-20010904/DTD/svg10.dtd">
<svg version="1.0" xmlns="http://www.w3.org/2000/svg"
 width="700.000000pt" height="700.000000pt" viewBox="0 0 700.000000 700.000000"
 preserveAspectRatio="xMidYMid meet">
<metadata>
Created by potrace 1.14, written by Peter Selinger 2001-2017
</metadata>
<g transform="translate(0.000000,700.000000) scale(0.100000,-0.100000)"
fill="#000000" stroke="none">
<path d="M1137 6124 c-1 -1 -28 -4 -59 -8 -95 -10 -226 -72 -303 -143 -38 -35
-105 -117 -105 -128 0 -5 -6 -16 -14 -24 -19 -22 -54 -121 -63 -178 -4 -26 -7
-995 -8 -2153 0 -2303 -4 -2156 58 -2285 83 -172 248 -293 438 -323 30 -4
1127 -7 2439 -7 1967 1 2395 3 2440 14 232 57 401 232 444 459 10 53 12 519
11 2177 -1 2014 -2 2113 -19 2170 -22 71 -59 146 -95 195 -80 106 -216 195
-342 221 -39 9 -692 12 -2437 13 -1311 1 -2384 0 -2385 0z m613 -874 l0 -290
-52 -1 c-204 -2 -519 1 -526 4 -5 4 -8 559 -3 575 1 1 132 2 291 2 l290 0 0
-290z m2915 -577 c-1 -478 -3 -871 -4 -875 0 -5 -524 -8 -1164 -8 l-1163 0 0
875 0 875 1166 0 1166 0 -1 -867z m1169 575 l1 -288 -90 0 c-143 -1 -385 -1
-442 -1 l-53 1 0 290 0 290 292 -2 292 -3 0 -287z m-4086 -1166 l2 -292 -292
2 -292 3 -1 275 c0 151 1 282 3 290 3 13 41 15 290 15 l287 0 3 -293z m4077
289 c8 -1 13 -470 6 -568 -1 -10 -66 -13 -291 -13 l-290 0 0 288 c0 159 2 291
4 293 4 3 542 4 571 0z m-4075 -1454 l0 -292 -290 0 c-187 0 -290 3 -291 10
-1 13 -1 535 0 557 1 15 28 16 291 17 l290 1 0 -293z m2916 -582 l0 -875 -223
0 c-123 0 -549 0 -948 0 -399 0 -823 0 -943 0 l-218 0 0 875 0 875 1166 0
1166 -1 0 -874z m1165 852 c4 -83 3 -550 -1 -556 -3 -4 -134 -7 -292 -6 l-288
0 0 292 0 293 290 -1 290 0 1 -22z m-4113 -1146 l32 -1 0 -290 0 -290 -292 0
-293 0 2 282 c1 156 2 286 2 290 1 4 11 8 24 10 18 2 382 2 525 -1z m4116
-290 l1 -290 -170 -3 c-93 -2 -225 -2 -292 0 l-123 3 0 289 0 289 48 3 c26 2
157 2 291 1 l245 -1 0 -291z"/>
</g>
</svg>
